<svg width="21" height="17" viewBox="0 0 21 17" fill="none" xmlns="http://www.w3.org/2000/svg">
<path d="M20.0937 5.36087L10.5096 15.4221C10.2486 15.6962 9.93496 15.9147 9.58749 16.0647C9.24002 16.2147 8.86585 16.293 8.4874 16.2949H8.47522C8.09897 16.2949 7.72654 16.2194 7.38 16.0729C7.03346 15.9263 6.71984 15.7117 6.45772 15.4418L1.37365 10.204C1.09717 9.94352 0.876311 9.62973 0.724409 9.28156C0.572508 8.9334 0.492709 8.55807 0.489827 8.17822C0.486945 7.79837 0.561039 7.42187 0.70764 7.07144C0.854241 6.72101 1.07031 6.40391 1.34281 6.13926C1.61531 5.87462 1.9386 5.66792 2.29317 5.53163C2.64774 5.39534 3.02625 5.33229 3.40585 5.34629C3.78545 5.36028 4.15828 5.45102 4.50186 5.61305C4.84543 5.77507 5.15263 6.00501 5.4049 6.289L8.45178 9.42868L16.0165 1.48431C16.271 1.2166 16.5758 1.00164 16.9134 0.851714C17.251 0.701788 17.6148 0.619829 17.9841 0.610514C18.3534 0.601199 18.7209 0.664712 19.0657 0.797426C19.4104 0.93014 19.7256 1.12946 19.9933 1.38399C20.2611 1.63853 20.476 1.94331 20.6259 2.28092C20.7759 2.61853 20.8578 2.98237 20.8671 3.35166C20.8765 3.72094 20.8129 4.08845 20.6802 4.43319C20.5475 4.77793 20.3482 5.09316 20.0937 5.36087Z" fill="url(#paint0_linear_434_1631)"/>
<defs>
<linearGradient id="paint0_linear_434_1631" x1="15.3724" y1="10.5612" x2="6.2374" y2="1.42525" gradientUnits="userSpaceOnUse">
<stop stop-color="#7C8CFF"/>
<stop offset="0.57" stop-color="white"/>
<stop offset="1" stop-color="white"/>
</linearGradient>
</defs>
</svg>
